<svg xmlns="http://www.w3.org/2000/svg" width="805" height="600"><rect width="805" height="600" x="0" y="0" fill="#FFFFFF" id="background"/><g id="viz"><g transform="translate(0,0)"><g transform="translate(10,20)"><g><path fill="rgb(204, 234, 159)" d="M0,560C13.534482758620689,560,13.534482758620689,559.4909090909091,27.068965517241377,559.4909090909091C40.603448275862064,559.4909090909091,40.603448275862064,560,54.137931034482754,560C67.67241379310344,560,67.67241379310344,560,81.20689655172414,560C94.74137931034483,560,94.74137931034483,560,108.27586206896551,560C135.3448275862069,560,135.3448275862069,560,162.41379310344828,560C175.94827586206895,560,175.94827586206895,560,189.48275862068965,560C203.01724137931035,560,203.01724137931035,550.0727272727273,216.55172413793102,550.0727272727273C230.08620689655172,550.0727272727273,230.08620689655172,551.6,243.6206896551724,551.6C257.15517241379314,551.6,257.15517241379314,552.3636363636364,270.68965517241384,552.3636363636364C311.29310344827593,552.3636363636364,311.29310344827593,544.4727272727273,351.89655172413796,544.4727272727273C365.4310344827586,544.4727272727273,365.4310344827586,545.7454545454545,378.9655172413793,545.7454545454545C392.5,545.7454545454545,392.5,534.8,406.0344827586207,534.8C419.5689655172414,534.8,419.5689655172414,541.1636363636363,433.10344827586204,541.1636363636363C446.63793103448273,541.1636363636363,446.63793103448273,542.1818181818181,460.17241379310343,542.1818181818181C473.7068965517241,542.1818181818181,473.7068965517241,539.3818181818182,487.2413793103448,539.3818181818182C500.77586206896547,539.3818181818182,500.77586206896547,546.2545454545455,514.3103448275862,546.2545454545455C527.844827586207,546.2545454545455,527.844827586207,555.1636363636363,541.3793103448277,555.1636363636363C554.9137931034484,555.1636363636363,554.9137931034484,550.3272727272727,568.448275862069,550.3272727272727C581.9827586206897,550.3272727272727,581.9827586206897,550.5818181818182,595.5172413793103,550.5818181818182C609.051724137931,550.5818181818182,609.051724137931,559.7454545454545,622.5862068965517,559.7454545454545C636.1206896551724,559.7454545454545,636.1206896551724,549.0545454545454,649.6551724137931,549.0545454545454C663.1896551724137,549.0545454545454,663.1896551724137,559.7454545454545,676.7241379310344,559.7454545454545C690.2586206896551,559.7454545454545,690.2586206896551,559.4909090909091,703.7931034482759,559.4909090909091C717.3275862068965,559.4909090909091,717.3275862068965,559.7454545454545,730.8620689655172,559.7454545454545C744.3965517241379,559.7454545454545,744.3965517241379,558.9818181818182,757.9310344827586,558.9818181818182C771.4655172413793,558.9818181818182,771.4655172413793,558.2181818181818,785,558.2181818181818L785,560C771.4655172413793,560,771.4655172413793,560,757.9310344827586,560C744.3965517241379,560,744.3965517241379,560,730.8620689655172,560C717.3275862068965,560,717.3275862068965,560,703.7931034482759,560C690.2586206896551,560,690.2586206896551,560,676.7241379310344,560C663.1896551724137,560,663.1896551724137,553.1272727272727,649.6551724137931,553.1272727272727C636.1206896551724,553.1272727272727,636.1206896551724,560,622.5862068965517,560C609.051724137931,560,609.051724137931,554.6545454545454,595.5172413793103,554.6545454545454C581.9827586206897,554.6545454545454,581.9827586206897,554.4,568.448275862069,554.4C554.9137931034484,554.4,554.9137931034484,559.2363636363636,541.3793103448277,559.2363636363636C527.844827586207,559.2363636363636,527.844827586207,553.6363636363636,514.3103448275862,553.6363636363636C500.77586206896547,553.6363636363636,500.77586206896547,546.5090909090909,487.2413793103448,546.5090909090909C473.7068965517241,546.5090909090909,473.7068965517241,550.0727272727273,460.17241379310343,550.0727272727273C446.63793103448273,550.0727272727273,446.63793103448273,548.0363636363636,433.10344827586204,548.0363636363636C419.5689655172414,548.0363636363636,419.5689655172414,542.6909090909091,406.0344827586207,542.6909090909091C392.5,542.6909090909091,392.5,549.5636363636363,378.9655172413793,549.5636363636363C365.4310344827586,549.5636363636363,365.4310344827586,549.8181818181819,351.89655172413796,549.8181818181819C311.29310344827593,549.8181818181819,311.29310344827593,557.2,270.68965517241384,557.2C257.15517241379314,557.2,257.15517241379314,554.4,243.6206896551724,554.4C230.08620689655172,554.4,230.08620689655172,553.8909090909091,216.55172413793102,553.8909090909091C203.01724137931035,553.8909090909091,203.01724137931035,560,189.48275862068965,560C175.94827586206895,560,175.94827586206895,560,162.41379310344828,560C135.3448275862069,560,135.3448275862069,560,108.27586206896551,560C94.74137931034483,560,94.74137931034483,560,81.20689655172414,560C67.67241379310344,560,67.67241379310344,560,54.137931034482754,560C40.603448275862064,560,40.603448275862064,560,27.068965517241377,560C13.534482758620689,560,13.534482758620689,560,0,560Z"><title>South Asia</title></path><path fill="rgb(253, 202, 121)" d="M0,560C13.534482758620689,560,13.534482758620689,560,27.068965517241377,560C40.603448275862064,560,40.603448275862064,560,54.137931034482754,560C67.67241379310344,560,67.67241379310344,560,81.20689655172414,560C94.74137931034483,560,94.74137931034483,560,108.27586206896551,560C135.3448275862069,560,135.3448275862069,560,162.41379310344828,560C175.94827586206895,560,175.94827586206895,560,189.48275862068965,560C203.01724137931035,560,203.01724137931035,558.7272727272727,216.55172413793102,558.7272727272727C230.08620689655172,558.7272727272727,230.08620689655172,560,243.6206896551724,560C257.15517241379314,560,257.15517241379314,557.2,270.68965517241384,557.2C311.29310344827593,557.2,311.29310344827593,557.2,351.89655172413796,557.2C365.4310344827586,557.2,365.4310344827586,559.7454545454545,378.9655172413793,559.7454545454545C392.5,559.7454545454545,392.5,560,406.0344827586207,560C419.5689655172414,560,419.5689655172414,558.9818181818182,433.10344827586204,558.9818181818182C446.63793103448273,558.9818181818182,446.63793103448273,559.2363636363636,460.17241379310343,559.2363636363636C473.7068965517241,559.2363636363636,473.7068965517241,559.4909090909091,487.2413793103448,559.4909090909091C500.77586206896547,559.4909090909091,500.77586206896547,559.7454545454545,514.3103448275862,559.7454545454545C527.844827586207,559.7454545454545,527.844827586207,560,541.3793103448277,560C554.9137931034484,560,554.9137931034484,560,568.448275862069,560C581.9827586206897,560,581.9827586206897,557.4545454545455,595.5172413793103,557.4545454545455C609.051724137931,557.4545454545455,609.051724137931,558.9818181818182,622.5862068965517,558.9818181818182C636.1206896551724,558.9818181818182,636.1206896551724,558.7272727272727,649.6551724137931,558.7272727272727C663.1896551724137,558.7272727272727,663.1896551724137,557.9636363636364,676.7241379310344,557.9636363636364C690.2586206896551,557.9636363636364,690.2586206896551,556.9454545454545,703.7931034482759,556.9454545454545C717.3275862068965,556.9454545454545,717.3275862068965,557.7090909090908,730.8620689655172,557.7090909090908C744.3965517241379,557.7090909090908,744.3965517241379,557.4545454545455,757.9310344827586,557.4545454545455C771.4655172413793,557.4545454545455,771.4655172413793,555.9272727272727,785,555.9272727272727L785,558.2181818181818C771.4655172413793,558.2181818181818,771.4655172413793,558.9818181818182,757.9310344827586,558.9818181818182C744.3965517241379,558.9818181818182,744.3965517241379,559.7454545454545,730.8620689655172,559.7454545454545C717.3275862068965,559.7454545454545,717.3275862068965,559.4909090909091,703.7931034482759,559.4909090909091C690.2586206896551,559.4909090909091,690.2586206896551,559.4909090909091,676.7241379310344,559.4909090909091C663.1896551724137,559.4909090909091,663.1896551724137,560,649.6551724137931,560C636.1206896551724,560,636.1206896551724,559.7454545454545,622.5862068965517,559.7454545454545C609.051724137931,559.7454545454545,609.051724137931,558.7272727272727,595.5172413793103,558.7272727272727C581.9827586206897,558.7272727272727,581.9827586206897,560,568.448275862069,560C554.9137931034484,560,554.9137931034484,560,541.3793103448277,560C527.844827586207,560,527.844827586207,560,514.3103448275862,560C500.77586206896547,560,500.77586206896547,560,487.2413793103448,560C473.7068965517241,560,473.7068965517241,559.7454545454545,460.17241379310343,559.7454545454545C446.63793103448273,559.7454545454545,446.63793103448273,559.7454545454545,433.10344827586204,559.7454545454545C419.5689655172414,559.7454545454545,419.5689655172414,560,406.0344827586207,560C392.5,560,392.5,560,378.9655172413793,560C365.4310344827586,560,365.4310344827586,558.4727272727273,351.89655172413796,558.4727272727273C311.29310344827593,558.4727272727273,311.29310344827593,558.4727272727273,270.68965517241384,558.4727272727273C257.15517241379314,558.4727272727273,257.15517241379314,560,243.6206896551724,560C230.08620689655172,560,230.08620689655172,559.7454545454545,216.55172413793102,559.7454545454545C203.01724137931035,559.7454545454545,203.01724137931035,560,189.48275862068965,560C175.94827586206895,560,175.94827586206895,560,162.41379310344828,560C135.3448275862069,560,135.3448275862069,560,108.27586206896551,560C94.74137931034483,560,94.74137931034483,560,81.20689655172414,560C67.67241379310344,560,67.67241379310344,560,54.137931034482754,560C40.603448275862064,560,40.603448275862064,560,27.068965517241377,560C13.534482758620689,560,13.534482758620689,560,0,560Z"><title>North Africa</title></path><path fill="rgb(251, 163, 94)" d="M0,560C13.534482758620689,560,13.534482758620689,558.9818181818182,27.068965517241377,558.9818181818182C40.603448275862064,558.9818181818182,40.603448275862064,556.6909090909091,54.137931034482754,556.6909090909091C67.67241379310344,556.6909090909091,67.67241379310344,560,81.20689655172414,560C94.74137931034483,560,94.74137931034483,560,108.27586206896551,560C135.3448275862069,560,135.3448275862069,557.4545454545455,162.41379310344828,557.4545454545455C175.94827586206895,557.4545454545455,175.94827586206895,546,189.48275862068965,546C203.01724137931035,546,203.01724137931035,522.0727272727272,216.55172413793102,522.0727272727272C230.08620689655172,522.0727272727272,230.08620689655172,556.1818181818181,243.6206896551724,556.1818181818181C257.15517241379314,556.1818181818181,257.15517241379314,540.1454545454545,270.68965517241384,540.1454545454545C311.29310344827593,540.1454545454545,311.29310344827593,532.7636363636364,351.89655172413796,532.7636363636364C365.4310344827586,532.7636363636364,365.4310344827586,529.9636363636364,378.9655172413793,529.9636363636364C392.5,529.9636363636364,392.5,549.309090909091,406.0344827586207,549.309090909091C419.5689655172414,549.309090909091,419.5689655172414,548.0363636363636,433.10344827586204,548.0363636363636C446.63793103448273,548.0363636363636,446.63793103448273,550.0727272727273,460.17241379310343,550.0727272727273C473.7068965517241,550.0727272727273,473.7068965517241,546.5090909090909,487.2413793103448,546.5090909090909C500.77586206896547,546.5090909090909,500.77586206896547,538.6181818181818,514.3103448275862,538.6181818181818C527.844827586207,538.6181818181818,527.844827586207,546.5090909090909,541.3793103448277,546.5090909090909C554.9137931034484,546.5090909090909,554.9137931034484,532.7636363636364,568.448275862069,532.7636363636364C581.9827586206897,532.7636363636364,581.9827586206897,536.0727272727273,595.5172413793103,536.0727272727273C609.051724137931,536.0727272727273,609.051724137931,522.5818181818182,622.5862068965517,522.5818181818182C636.1206896551724,522.5818181818182,636.1206896551724,495.8545454545455,649.6551724137931,495.8545454545455C663.1896551724137,495.8545454545455,663.1896551724137,424.3272727272727,676.7241379310344,424.3272727272727C690.2586206896551,424.3272727272727,690.2586206896551,344.90909090909093,703.7931034482759,344.90909090909093C717.3275862068965,344.90909090909093,717.3275862068965,413.6363636363636,730.8620689655172,413.6363636363636C744.3965517241379,413.6363636363636,744.3965517241379,353.30909090909086,757.9310344827586,353.30909090909086C771.4655172413793,353.30909090909086,771.4655172413793,449.5272727272727,785,449.5272727272727L785,493.8181818181818C771.4655172413793,493.8181818181818,771.4655172413793,407.2727272727273,757.9310344827586,407.2727272727273C744.3965517241379,407.2727272727273,744.3965517241379,463.0181818181818,730.8620689655172,463.0181818181818C717.3275862068965,463.0181818181818,717.3275862068965,395.05454545454546,703.7931034482759,395.05454545454546C690.2586206896551,395.05454545454546,690.2586206896551,467.0909090909091,676.7241379310344,467.0909090909091C663.1896551724137,467.0909090909091,663.1896551724137,520.5454545454545,649.6551724137931,520.5454545454545C636.1206896551724,520.5454545454545,636.1206896551724,539.3818181818182,622.5862068965517,539.3818181818182C609.051724137931,539.3818181818182,609.051724137931,550.5818181818182,595.5172413793103,550.5818181818182C581.9827586206897,550.5818181818182,581.9827586206897,544.4727272727273,568.448275862069,544.4727272727273C554.9137931034484,544.4727272727273,554.9137931034484,555.1636363636363,541.3793103448277,555.1636363636363C527.844827586207,555.1636363636363,527.844827586207,546.2545454545455,514.3103448275862,546.2545454545455C500.77586206896547,546.2545454545455,500.77586206896547,553.3818181818182,487.2413793103448,553.3818181818182C473.7068965517241,553.3818181818182,473.7068965517241,556.1818181818181,460.17241379310343,556.1818181818181C446.63793103448273,556.1818181818181,446.63793103448273,554.1454545454545,433.10344827586204,554.1454545454545C419.5689655172414,554.1454545454545,419.5689655172414,555.1636363636363,406.0344827586207,555.1636363636363C392.5,555.1636363636363,392.5,539.8909090909091,378.9655172413793,539.8909090909091C365.4310344827586,539.8909090909091,365.4310344827586,544.4727272727273,351.89655172413796,544.4727272727273C311.29310344827593,544.4727272727273,311.29310344827593,547.0181818181818,270.68965517241384,547.0181818181818C257.15517241379314,547.0181818181818,257.15517241379314,557.9636363636364,243.6206896551724,557.9636363636364C230.08620689655172,557.9636363636364,230.08620689655172,536.3272727272728,216.55172413793102,536.3272727272728C203.01724137931035,536.3272727272728,203.01724137931035,556.1818181818181,189.48275862068965,556.1818181818181C175.94827586206895,556.1818181818181,175.94827586206895,559.2363636363636,162.41379310344828,559.2363636363636C135.3448275862069,559.2363636363636,135.3448275862069,560,108.27586206896551,560C94.74137931034483,560,94.74137931034483,560,81.20689655172414,560C67.67241379310344,560,67.67241379310344,558.9818181818182,54.137931034482754,558.9818181818182C40.603448275862064,558.9818181818182,40.603448275862064,559.4909090909091,27.068965517241377,559.4909090909091C13.534482758620689,559.4909090909091,13.534482758620689,560,0,560Z"><title>Latin America and the Caribbean</title></path><path fill="rgb(68, 120, 178)" d="M0,560C13.534482758620689,560,13.534482758620689,560,27.068965517241377,560C40.603448275862064,560,40.603448275862064,560,54.137931034482754,560C67.67241379310344,560,67.67241379310344,560,81.20689655172414,560C94.74137931034483,560,94.74137931034483,560,108.27586206896551,560C135.3448275862069,560,135.3448275862069,560,162.41379310344828,560C175.94827586206895,560,175.94827586206895,560,189.48275862068965,560C203.01724137931035,560,203.01724137931035,560,216.55172413793102,560C230.08620689655172,560,230.08620689655172,560,243.6206896551724,560C257.15517241379314,560,257.15517241379314,558.9818181818182,270.68965517241384,558.9818181818182C311.29310344827593,558.9818181818182,311.29310344827593,553.8909090909091,351.89655172413796,553.8909090909091C365.4310344827586,553.8909090909091,365.4310344827586,556.6909090909091,378.9655172413793,556.6909090909091C392.5,556.6909090909091,392.5,555.1636363636363,406.0344827586207,555.1636363636363C419.5689655172414,555.1636363636363,419.5689655172414,554.1454545454545,433.10344827586204,554.1454545454545C446.63793103448273,554.1454545454545,446.63793103448273,556.1818181818181,460.17241379310343,556.1818181818181C473.7068965517241,556.1818181818181,473.7068965517241,557.7090909090908,487.2413793103448,557.7090909090908C500.77586206896547,557.7090909090908,500.77586206896547,558.4727272727273,514.3103448275862,558.4727272727273C527.844827586207,558.4727272727273,527.844827586207,559.2363636363636,541.3793103448277,559.2363636363636C554.9137931034484,559.2363636363636,554.9137931034484,559.7454545454545,568.448275862069,559.7454545454545C581.9827586206897,559.7454545454545,581.9827586206897,558.7272727272727,595.5172413793103,558.7272727272727C609.051724137931,558.7272727272727,609.051724137931,558.2181818181818,622.5862068965517,558.2181818181818C636.1206896551724,558.2181818181818,636.1206896551724,553.1272727272727,649.6551724137931,553.1272727272727C663.1896551724137,553.1272727272727,663.1896551724137,547.5272727272727,676.7241379310344,547.5272727272727C690.2586206896551,547.5272727272727,690.2586206896551,544.7272727272727,703.7931034482759,544.7272727272727C717.3275862068965,544.7272727272727,717.3275862068965,543.709090909091,730.8620689655172,543.709090909091C744.3965517241379,543.709090909091,744.3965517241379,539.8909090909091,757.9310344827586,539.8909090909091C771.4655172413793,539.8909090909091,771.4655172413793,529.4545454545455,785,529.4545454545455L785,540.9090909090909C771.4655172413793,540.9090909090909,771.4655172413793,547.5272727272727,757.9310344827586,547.5272727272727C744.3965517241379,547.5272727272727,744.3965517241379,551.0909090909091,730.8620689655172,551.0909090909091C717.3275862068965,551.0909090909091,717.3275862068965,550.8363636363637,703.7931034482759,550.8363636363637C690.2586206896551,550.8363636363637,690.2586206896551,551.6,676.7241379310344,551.6C663.1896551724137,551.6,663.1896551724137,556.1818181818181,649.6551724137931,556.1818181818181C636.1206896551724,556.1818181818181,636.1206896551724,558.9818181818182,622.5862068965517,558.9818181818182C609.051724137931,558.9818181818182,609.051724137931,559.7454545454545,595.5172413793103,559.7454545454545C581.9827586206897,559.7454545454545,581.9827586206897,560,568.448275862069,560C554.9137931034484,560,554.9137931034484,559.7454545454545,541.3793103448277,559.7454545454545C527.844827586207,559.7454545454545,527.844827586207,559.7454545454545,514.3103448275862,559.7454545454545C500.77586206896547,559.7454545454545,500.77586206896547,559.4909090909091,487.2413793103448,559.4909090909091C473.7068965517241,559.4909090909091,473.7068965517241,558.2181818181818,460.17241379310343,558.2181818181818C446.63793103448273,558.2181818181818,446.63793103448273,557.7090909090908,433.10344827586204,557.7090909090908C419.5689655172414,557.7090909090908,419.5689655172414,558.2181818181818,406.0344827586207,558.2181818181818C392.5,558.2181818181818,392.5,559.7454545454545,378.9655172413793,559.7454545454545C365.4310344827586,559.7454545454545,365.4310344827586,557.2,351.89655172413796,557.2C311.29310344827593,557.2,311.29310344827593,559.4909090909091,270.68965517241384,559.4909090909091C257.15517241379314,559.4909090909091,257.15517241379314,560,243.6206896551724,560C230.08620689655172,560,230.08620689655172,560,216.55172413793102,560C203.01724137931035,560,203.01724137931035,560,189.48275862068965,560C175.94827586206895,560,175.94827586206895,560,162.41379310344828,560C135.3448275862069,560,135.3448275862069,560,108.27586206896551,560C94.74137931034483,560,94.74137931034483,560,81.20689655172414,560C67.67241379310344,560,67.67241379310344,560,54.137931034482754,560C40.603448275862064,560,40.603448275862064,560,27.068965517241377,560C13.534482758620689,560,13.534482758620689,560,0,560Z"><title>Western Asia</title></path><path fill="rgb(158, 1, 66)" d="M0,559.4909090909091C13.534482758620689,559.4909090909091,13.534482758620689,557.7090909090908,27.068965517241377,557.7090909090908C40.603448275862064,557.7090909090908,40.603448275862064,560,54.137931034482754,560C67.67241379310344,560,67.67241379310344,552.1090909090909,81.20689655172414,552.1090909090909C94.74137931034483,552.1090909090909,94.74137931034483,555.6727272727273,108.27586206896551,555.6727272727273C135.3448275862069,555.6727272727273,135.3448275862069,555.6727272727273,162.41379310344828,555.6727272727273C175.94827586206895,555.6727272727273,175.94827586206895,556.1818181818181,189.48275862068965,556.1818181818181C203.01724137931035,556.1818181818181,203.01724137931035,557.4545454545455,216.55172413793102,557.4545454545455C230.08620689655172,557.4545454545455,230.08620689655172,554.4,243.6206896551724,554.4C257.15517241379314,554.4,257.15517241379314,558.4727272727273,270.68965517241384,558.4727272727273C311.29310344827593,558.4727272727273,311.29310344827593,549.8181818181819,351.89655172413796,549.8181818181819C365.4310344827586,549.8181818181819,365.4310344827586,539.8909090909091,378.9655172413793,539.8909090909091C392.5,539.8909090909091,392.5,508.07272727272726,406.0344827586207,508.07272727272726C419.5689655172414,508.07272727272726,419.5689655172414,515.4545454545454,433.10344827586204,515.4545454545454C446.63793103448273,515.4545454545454,446.63793103448273,529.9636363636364,460.17241379310343,529.9636363636364C473.7068965517241,529.9636363636364,473.7068965517241,511.6363636363636,487.2413793103448,511.6363636363636C500.77586206896547,511.6363636363636,500.77586206896547,529.9636363636364,514.3103448275862,529.9636363636364C527.844827586207,529.9636363636364,527.844827586207,533.5272727272727,541.3793103448277,533.5272727272727C554.9137931034484,533.5272727272727,554.9137931034484,554.4,568.448275862069,554.4C581.9827586206897,554.4,581.9827586206897,517.4909090909091,595.5172413793103,517.4909090909091C609.051724137931,517.4909090909091,609.051724137931,539.3818181818182,622.5862068965517,539.3818181818182C636.1206896551724,539.3818181818182,636.1206896551724,520.5454545454545,649.6551724137931,520.5454545454545C663.1896551724137,520.5454545454545,663.1896551724137,467.0909090909091,676.7241379310344,467.0909090909091C690.2586206896551,467.0909090909091,690.2586206896551,395.05454545454546,703.7931034482759,395.05454545454546C717.3275862068965,395.05454545454546,717.3275862068965,463.0181818181818,730.8620689655172,463.0181818181818C744.3965517241379,463.0181818181818,744.3965517241379,407.2727272727273,757.9310344827586,407.2727272727273C771.4655172413793,407.2727272727273,771.4655172413793,493.8181818181818,785,493.8181818181818L785,529.4545454545455C771.4655172413793,529.4545454545455,771.4655172413793,448.76363636363635,757.9310344827586,448.76363636363635C744.3965517241379,448.76363636363635,744.3965517241379,504.5090909090909,730.8620689655172,504.5090909090909C717.3275862068965,504.5090909090909,717.3275862068965,442.6545454545455,703.7931034482759,442.6545454545455C690.2586206896551,442.6545454545455,690.2586206896551,502.9818181818182,676.7241379310344,502.9818181818182C663.1896551724137,502.9818181818182,663.1896551724137,538.8727272727273,649.6551724137931,538.8727272727273C636.1206896551724,538.8727272727273,636.1206896551724,554.1454545454545,622.5862068965517,554.1454545454545C609.051724137931,554.1454545454545,609.051724137931,536.0727272727273,595.5172413793103,536.0727272727273C581.9827586206897,536.0727272727273,581.9827586206897,557.4545454545455,568.448275862069,557.4545454545455C554.9137931034484,557.4545454545455,554.9137931034484,546.5090909090909,541.3793103448277,546.5090909090909C527.844827586207,546.5090909090909,527.844827586207,538.6181818181818,514.3103448275862,538.6181818181818C500.77586206896547,538.6181818181818,500.77586206896547,525.8909090909091,487.2413793103448,525.8909090909091C473.7068965517241,525.8909090909091,473.7068965517241,542.1818181818181,460.17241379310343,542.1818181818181C446.63793103448273,542.1818181818181,446.63793103448273,525.3818181818182,433.10344827586204,525.3818181818182C419.5689655172414,525.3818181818182,419.5689655172414,524.3636363636364,406.0344827586207,524.3636363636364C392.5,524.3636363636364,392.5,545.7454545454545,378.9655172413793,545.7454545454545C365.4310344827586,545.7454545454545,365.4310344827586,553.8909090909091,351.89655172413796,553.8909090909091C311.29310344827593,553.8909090909091,311.29310344827593,558.9818181818182,270.68965517241384,558.9818181818182C257.15517241379314,558.9818181818182,257.15517241379314,556.1818181818181,243.6206896551724,556.1818181818181C230.08620689655172,556.1818181818181,230.08620689655172,558.7272727272727,216.55172413793102,558.7272727272727C203.01724137931035,558.7272727272727,203.01724137931035,558.9818181818182,189.48275862068965,558.9818181818182C175.94827586206895,558.9818181818182,175.94827586206895,557.4545454545455,162.41379310344828,557.4545454545455C135.3448275862069,557.4545454545455,135.3448275862069,558.2181818181818,108.27586206896551,558.2181818181818C94.74137931034483,558.2181818181818,94.74137931034483,556.9454545454545,81.20689655172414,556.9454545454545C67.67241379310344,556.9454545454545,67.67241379310344,560,54.137931034482754,560C40.603448275862064,560,40.603448275862064,558.9818181818182,27.068965517241377,558.9818181818182C13.534482758620689,558.9818181818182,13.534482758620689,560,0,560Z"><title>Australasia</title></path><path fill="rgb(94, 79, 162)" d="M0,534.8C13.534482758620689,534.8,13.534482758620689,429.6727272727273,27.068965517241377,429.6727272727273C40.603448275862064,429.6727272727273,40.603448275862064,549.5636363636363,54.137931034482754,549.5636363636363C67.67241379310344,549.5636363636363,67.67241379310344,520.0363636363636,81.20689655172414,520.0363636363636C94.74137931034483,520.0363636363636,94.74137931034483,477.2727272727273,108.27586206896551,477.2727272727273C135.3448275862069,477.2727272727273,135.3448275862069,362.2181818181818,162.41379310344828,362.2181818181818C175.94827586206895,362.2181818181818,175.94827586206895,334.98181818181814,189.48275862068965,334.98181818181814C203.01724137931035,334.98181818181814,203.01724137931035,379.27272727272725,216.55172413793102,379.27272727272725C230.08620689655172,379.27272727272725,230.08620689655172,486.1818181818182,243.6206896551724,486.1818181818182C257.15517241379314,486.1818181818182,257.15517241379314,337.2727272727273,270.68965517241384,337.2727272727273C311.29310344827593,337.2727272727273,311.29310344827593,410.07272727272726,351.89655172413796,410.07272727272726C365.4310344827586,410.07272727272726,365.4310344827586,439.6,378.9655172413793,439.6C392.5,439.6,392.5,524.3636363636364,406.0344827586207,524.3636363636364C419.5689655172414,524.3636363636364,419.5689655172414,525.3818181818182,433.10344827586204,525.3818181818182C446.63793103448273,525.3818181818182,446.63793103448273,463.0181818181818,460.17241379310343,463.0181818181818C473.7068965517241,463.0181818181818,473.7068965517241,395.3090909090909,487.2413793103448,395.3090909090909C500.77586206896547,395.3090909090909,500.77586206896547,367.56363636363636,514.3103448275862,367.56363636363636C527.844827586207,367.56363636363636,527.844827586207,360.6909090909091,541.3793103448277,360.6909090909091C554.9137931034484,360.6909090909091,554.9137931034484,403.2,568.448275862069,403.2C581.9827586206897,403.2,581.9827586206897,295.2727272727273,595.5172413793103,295.2727272727273C609.051724137931,295.2727272727273,609.051724137931,283.8181818181818,622.5862068965517,283.8181818181818C636.1206896551724,283.8181818181818,636.1206896551724,225.52727272727273,649.6551724137931,225.52727272727273C663.1896551724137,225.52727272727273,663.1896551724137,245.89090909090908,676.7241379310344,245.89090909090908C690.2586206896551,245.89090909090908,690.2586206896551,148.4,703.7931034482759,148.4C717.3275862068965,148.4,717.3275862068965,149.9272727272727,730.8620689655172,149.9272727272727C744.3965517241379,149.9272727272727,744.3965517241379,287.6363636363636,757.9310344827586,287.6363636363636C771.4655172413793,287.6363636363636,771.4655172413793,280.76363636363635,785,280.76363636363635L785,344.90909090909093C771.4655172413793,344.90909090909093,771.4655172413793,353.30909090909086,757.9310344827586,353.30909090909086C744.3965517241379,353.30909090909086,744.3965517241379,225.27272727272725,730.8620689655172,225.27272727272725C717.3275862068965,225.27272727272725,717.3275862068965,221.96363636363637,703.7931034482759,221.96363636363637C690.2586206896551,221.96363636363637,690.2586206896551,314.1090909090909,676.7241379310344,314.1090909090909C663.1896551724137,314.1090909090909,663.1896551724137,301.3818181818182,649.6551724137931,301.3818181818182C636.1206896551724,301.3818181818182,636.1206896551724,378.2545454545455,622.5862068965517,378.2545454545455C609.051724137931,378.2545454545455,609.051724137931,368.5818181818182,595.5172413793103,368.5818181818182C581.9827586206897,368.5818181818182,581.9827586206897,480.3272727272727,568.448275862069,480.3272727272727C554.9137931034484,480.3272727272727,554.9137931034484,442.6545454545455,541.3793103448277,442.6545454545455C527.844827586207,442.6545454545455,527.844827586207,440.1090909090909,514.3103448275862,440.1090909090909C500.77586206896547,440.1090909090909,500.77586206896547,436.54545454545456,487.2413793103448,436.54545454545456C473.7068965517241,436.54545454545456,473.7068965517241,480.8363636363636,460.17241379310343,480.8363636363636C446.63793103448273,480.8363636363636,446.63793103448273,533.5272727272727,433.10344827586204,533.5272727272727C419.5689655172414,533.5272727272727,419.5689655172414,534.8,406.0344827586207,534.8C392.5,534.8,392.5,475.4909090909091,378.9655172413793,475.4909090909091C365.4310344827586,475.4909090909091,365.4310344827586,450.79999999999995,351.89655172413796,450.79999999999995C311.29310344827593,450.79999999999995,311.29310344827593,438.83636363636367,270.68965517241384,438.83636363636367C257.15517241379314,438.83636363636367,257.15517241379314,509.8545454545454,243.6206896551724,509.8545454545454C230.08620689655172,509.8545454545454,230.08620689655172,432.9818181818182,216.55172413793102,432.9818181818182C203.01724137931035,432.9818181818182,203.01724137931035,399.8909090909091,189.48275862068965,399.8909090909091C175.94827586206895,399.8909090909091,175.94827586206895,465.8181818181818,162.41379310344828,465.8181818181818C135.3448275862069,465.8181818181818,135.3448275862069,510.8727272727273,108.27586206896551,510.8727272727273C94.74137931034483,510.8727272727273,94.74137931034483,545.4909090909091,81.20689655172414,545.4909090909091C67.67241379310344,545.4909090909091,67.67241379310344,553.6363636363636,54.137931034482754,553.6363636363636C40.603448275862064,553.6363636363636,40.603448275862064,507.3090909090909,27.068965517241377,507.3090909090909C13.534482758620689,507.3090909090909,13.534482758620689,548.0363636363636,0,548.0363636363636Z"><title>Western Europe</title></path><path fill="rgb(243, 120, 76)" d="M0,556.4363636363637C13.534482758620689,556.4363636363637,13.534482758620689,545.7454545454545,27.068965517241377,545.7454545454545C40.603448275862064,545.7454545454545,40.603448275862064,553.6363636363636,54.137931034482754,553.6363636363636C67.67241379310344,553.6363636363636,67.67241379310344,545.4909090909091,81.20689655172414,545.4909090909091C94.74137931034483,545.4909090909091,94.74137931034483,538.6181818181818,108.27586206896551,538.6181818181818C135.3448275862069,538.6181818181818,135.3448275862069,553.1272727272727,162.41379310344828,553.1272727272727C175.94827586206895,553.1272727272727,175.94827586206895,516.9818181818182,189.48275862068965,516.9818181818182C203.01724137931035,516.9818181818182,203.01724137931035,536.3272727272728,216.55172413793102,536.3272727272728C230.08620689655172,536.3272727272728,230.08620689655172,529.709090909091,243.6206896551724,529.709090909091C257.15517241379314,529.709090909091,257.15517241379314,522.3272727272728,270.68965517241384,522.3272727272728C311.29310344827593,522.3272727272728,311.29310344827593,512.1454545454545,351.89655172413796,512.1454545454545C365.4310344827586,512.1454545454545,365.4310344827586,333.70909090909095,378.9655172413793,333.70909090909095C392.5,333.70909090909095,392.5,334.7272727272727,406.0344827586207,334.7272727272727C419.5689655172414,334.7272727272727,419.5689655172414,335.4909090909091,433.10344827586204,335.4909090909091C446.63793103448273,335.4909090909091,446.63793103448273,302.9090909090909,460.17241379310343,302.9090909090909C473.7068965517241,302.9090909090909,473.7068965517241,297.56363636363636,487.2413793103448,297.56363636363636C500.77586206896547,297.56363636363636,500.77586206896547,258.3636363636363,514.3103448275862,258.3636363636363C527.844827586207,258.3636363636363,527.844827586207,227.81818181818184,541.3793103448277,227.81818181818184C554.9137931034484,227.81818181818184,554.9137931034484,206.94545454545454,568.448275862069,206.94545454545454C581.9827586206897,206.94545454545454,581.9827586206897,490.50909090909096,595.5172413793103,490.50909090909096C609.051724137931,490.50909090909096,609.051724137931,166.47272727272727,622.5862068965517,166.47272727272727C636.1206896551724,166.47272727272727,636.1206896551724,126.76363636363634,649.6551724137931,126.76363636363634C663.1896551724137,126.76363636363634,663.1896551724137,86.80000000000001,676.7241379310344,86.80000000000001C690.2586206896551,86.80000000000001,690.2586206896551,47.0909090909091,703.7931034482759,47.0909090909091C717.3275862068965,47.0909090909091,717.3275862068965,51.41818181818181,730.8620689655172,51.41818181818181C744.3965517241379,51.41818181818181,744.3965517241379,212.2909090909091,757.9310344827586,212.2909090909091C771.4655172413793,212.2909090909091,771.4655172413793,216.61818181818182,785,216.61818181818182L785,280.76363636363635C771.4655172413793,280.76363636363635,771.4655172413793,287.6363636363636,757.9310344827586,287.6363636363636C744.3965517241379,287.6363636363636,744.3965517241379,149.9272727272727,730.8620689655172,149.9272727272727C717.3275862068965,149.9272727272727,717.3275862068965,148.4,703.7931034482759,148.4C690.2586206896551,148.4,690.2586206896551,166.72727272727272,676.7241379310344,166.72727272727272C663.1896551724137,166.72727272727272,663.1896551724137,225.52727272727273,649.6551724137931,225.52727272727273C636.1206896551724,225.52727272727273,636.1206896551724,283.8181818181818,622.5862068965517,283.8181818181818C609.051724137931,283.8181818181818,609.051724137931,517.4909090909091,595.5172413793103,517.4909090909091C581.9827586206897,517.4909090909091,581.9827586206897,403.2,568.448275862069,403.2C554.9137931034484,403.2,554.9137931034484,360.6909090909091,541.3793103448277,360.6909090909091C527.844827586207,360.6909090909091,527.844827586207,367.56363636363636,514.3103448275862,367.56363636363636C500.77586206896547,367.56363636363636,500.77586206896547,395.3090909090909,487.2413793103448,395.3090909090909C473.7068965517241,395.3090909090909,473.7068965517241,394.2909090909091,460.17241379310343,394.2909090909091C446.63793103448273,394.2909090909091,446.63793103448273,413.8909090909091,433.10344827586204,413.8909090909091C419.5689655172414,413.8909090909091,419.5689655172414,410.07272727272726,406.0344827586207,410.07272727272726C392.5,410.07272727272726,392.5,397.8545454545455,378.9655172413793,397.8545454545455C365.4310344827586,397.8545454545455,365.4310344827586,532.7636363636364,351.89655172413796,532.7636363636364C311.29310344827593,532.7636363636364,311.29310344827593,540.1454545454545,270.68965517241384,540.1454545454545C257.15517241379314,540.1454545454545,257.15517241379314,543.709090909091,243.6206896551724,543.709090909091C230.08620689655172,543.709090909091,230.08620689655172,550.0727272727273,216.55172413793102,550.0727272727273C203.01724137931035,550.0727272727273,203.01724137931035,531.7454545454545,189.48275862068965,531.7454545454545C175.94827586206895,531.7454545454545,175.94827586206895,555.6727272727273,162.41379310344828,555.6727272727273C135.3448275862069,555.6727272727273,135.3448275862069,549.8181818181819,108.27586206896551,549.8181818181819C94.74137931034483,549.8181818181819,94.74137931034483,552.1090909090909,81.20689655172414,552.1090909090909C67.67241379310344,552.1090909090909,67.67241379310344,556.6909090909091,54.137931034482754,556.6909090909091C40.603448275862064,556.6909090909091,40.603448275862064,556.1818181818181,27.068965517241377,556.1818181818181C13.534482758620689,556.1818181818181,13.534482758620689,559.4909090909091,0,559.4909090909091Z"><title>Eastern Europe</title></path><path fill="rgb(254, 232, 154)" d="M0,548.0363636363636C13.534482758620689,548.0363636363636,13.534482758620689,531.2363636363636,27.068965517241377,531.2363636363636C40.603448275862064,531.2363636363636,40.603448275862064,440.3636363636364,54.137931034482754,440.3636363636364C67.67241379310344,440.3636363636364,67.67241379310344,491.0181818181818,81.20689655172414,491.0181818181818C94.74137931034483,491.0181818181818,94.74137931034483,510.8727272727273,108.27586206896551,510.8727272727273C135.3448275862069,510.8727272727273,135.3448275862069,465.8181818181818,162.41379310344828,465.8181818181818C175.94827586206895,465.8181818181818,175.94827586206895,461.4909090909091,189.48275862068965,461.4909090909091C203.01724137931035,461.4909090909091,203.01724137931035,470.6545454545454,216.55172413793102,470.6545454545454C230.08620689655172,470.6545454545454,230.08620689655172,403.45454545454544,243.6206896551724,403.45454545454544C257.15517241379314,403.45454545454544,257.15517241379314,474.2181818181818,270.68965517241384,474.2181818181818C311.29310344827593,474.2181818181818,311.29310344827593,450.79999999999995,351.89655172413796,450.79999999999995C365.4310344827586,450.79999999999995,365.4310344827586,475.4909090909091,378.9655172413793,475.4909090909091C392.5,475.4909090909091,392.5,410.07272727272726,406.0344827586207,410.07272727272726C419.5689655172414,410.07272727272726,419.5689655172414,413.8909090909091,433.10344827586204,413.8909090909091C446.63793103448273,413.8909090909091,446.63793103448273,394.2909090909091,460.17241379310343,394.2909090909091C473.7068965517241,394.2909090909091,473.7068965517241,436.54545454545456,487.2413793103448,436.54545454545456C500.77586206896547,436.54545454545456,500.77586206896547,440.1090909090909,514.3103448275862,440.1090909090909C527.844827586207,440.1090909090909,527.844827586207,442.6545454545455,541.3793103448277,442.6545454545455C554.9137931034484,442.6545454545455,554.9137931034484,560,568.448275862069,560C581.9827586206897,560,581.9827586206897,188.6181818181818,595.5172413793103,188.6181818181818C609.051724137931,188.6181818181818,609.051724137931,378.2545454545455,622.5862068965517,378.2545454545455C636.1206896551724,378.2545454545455,636.1206896551724,301.3818181818182,649.6551724137931,301.3818181818182C663.1896551724137,301.3818181818182,663.1896551724137,166.72727272727272,676.7241379310344,166.72727272727272C690.2586206896551,166.72727272727272,690.2586206896551,221.96363636363637,703.7931034482759,221.96363636363637C717.3275862068965,221.96363636363637,717.3275862068965,225.27272727272725,730.8620689655172,225.27272727272725C744.3965517241379,225.27272727272725,744.3965517241379,40.2181818181818,757.9310344827586,40.2181818181818C771.4655172413793,40.2181818181818,771.4655172413793,64.90909090909093,785,64.90909090909093L785,143.05454545454546C771.4655172413793,143.05454545454546,771.4655172413793,129.05454545454546,757.9310344827586,129.05454545454546C744.3965517241379,129.05454545454546,744.3965517241379,296.8,730.8620689655172,296.8C717.3275862068965,296.8,717.3275862068965,292.9818181818182,703.7931034482759,292.9818181818182C690.2586206896551,292.9818181818182,690.2586206896551,245.89090909090908,676.7241379310344,245.89090909090908C663.1896551724137,245.89090909090908,663.1896551724137,369.59999999999997,649.6551724137931,369.59999999999997C636.1206896551724,369.59999999999997,636.1206896551724,432.7272727272727,622.5862068965517,432.7272727272727C609.051724137931,432.7272727272727,609.051724137931,295.2727272727273,595.5172413793103,295.2727272727273C581.9827586206897,295.2727272727273,581.9827586206897,560,568.448275862069,560C554.9137931034484,560,554.9137931034484,487.4545454545455,541.3793103448277,487.4545454545455C527.844827586207,487.4545454545455,527.844827586207,482.10909090909087,514.3103448275862,482.10909090909087C500.77586206896547,482.10909090909087,500.77586206896547,477.0181818181818,487.2413793103448,477.0181818181818C473.7068965517241,477.0181818181818,473.7068965517241,463.0181818181818,460.17241379310343,463.0181818181818C446.63793103448273,463.0181818181818,446.63793103448273,467.0909090909091,433.10344827586204,467.0909090909091C419.5689655172414,467.0909090909091,419.5689655172414,459.45454545454544,406.0344827586207,459.45454545454544C392.5,459.45454545454544,392.5,509.6,378.9655172413793,509.6C365.4310344827586,509.6,365.4310344827586,490,351.89655172413796,490C311.29310344827593,490,311.29310344827593,503.23636363636365,270.68965517241384,503.23636363636365C257.15517241379314,503.23636363636365,257.15517241379314,459.20000000000005,243.6206896551724,459.20000000000005C230.08620689655172,459.20000000000005,230.08620689655172,500.43636363636364,216.55172413793102,500.43636363636364C203.01724137931035,500.43636363636364,203.01724137931035,516.9818181818182,189.48275862068965,516.9818181818182C175.94827586206895,516.9818181818182,175.94827586206895,519.0181818181818,162.41379310344828,519.0181818181818C135.3448275862069,519.0181818181818,135.3448275862069,538.6181818181818,108.27586206896551,538.6181818181818C94.74137931034483,538.6181818181818,94.74137931034483,520.0363636363636,81.20689655172414,520.0363636363636C67.67241379310344,520.0363636363636,67.67241379310344,549.5636363636363,54.137931034482754,549.5636363636363C40.603448275862064,549.5636363636363,40.603448275862064,545.7454545454545,27.068965517241377,545.7454545454545C13.534482758620689,545.7454545454545,13.534482758620689,553.1272727272727,0,553.1272727272727Z"><title>Northern America</title></path><path fill="rgb(75, 160, 177)" d="M0,560C13.534482758620689,560,13.534482758620689,560,27.068965517241377,560C40.603448275862064,560,40.603448275862064,560,54.137931034482754,560C67.67241379310344,560,67.67241379310344,559.4909090909091,81.20689655172414,559.4909090909091C94.74137931034483,559.4909090909091,94.74137931034483,558.2181818181818,108.27586206896551,558.2181818181818C135.3448275862069,558.2181818181818,135.3448275862069,547.7818181818182,162.41379310344828,547.7818181818182C175.94827586206895,547.7818181818182,175.94827586206895,558.9818181818182,189.48275862068965,558.9818181818182C203.01724137931035,558.9818181818182,203.01724137931035,555.9272727272727,216.55172413793102,555.9272727272727C230.08620689655172,555.9272727272727,230.08620689655172,557.9636363636364,243.6206896551724,557.9636363636364C257.15517241379314,557.9636363636364,257.15517241379314,559.7454545454545,270.68965517241384,559.7454545454545C311.29310344827593,559.7454545454545,311.29310344827593,558.4727272727273,351.89655172413796,558.4727272727273C365.4310344827586,558.4727272727273,365.4310344827586,553.1272727272727,378.9655172413793,553.1272727272727C392.5,553.1272727272727,392.5,558.2181818181818,406.0344827586207,558.2181818181818C419.5689655172414,558.2181818181818,419.5689655172414,557.7090909090908,433.10344827586204,557.7090909090908C446.63793103448273,557.7090909090908,446.63793103448273,558.2181818181818,460.17241379310343,558.2181818181818C473.7068965517241,558.2181818181818,473.7068965517241,553.3818181818182,487.2413793103448,553.3818181818182C500.77586206896547,553.3818181818182,500.77586206896547,553.6363636363636,514.3103448275862,553.6363636363636C527.844827586207,553.6363636363636,527.844827586207,560,541.3793103448277,560C554.9137931034484,560,554.9137931034484,544.4727272727273,568.448275862069,544.4727272727273C581.9827586206897,544.4727272727273,581.9827586206897,554.6545454545454,595.5172413793103,554.6545454545454C609.051724137931,554.6545454545454,609.051724137931,554.1454545454545,622.5862068965517,554.1454545454545C636.1206896551724,554.1454545454545,636.1206896551724,538.8727272727273,649.6551724137931,538.8727272727273C663.1896551724137,538.8727272727273,663.1896551724137,535.309090909091,676.7241379310344,535.309090909091C690.2586206896551,535.309090909091,690.2586206896551,532.7636363636364,703.7931034482759,532.7636363636364C717.3275862068965,532.7636363636364,717.3275862068965,534.290909090909,730.8620689655172,534.290909090909C744.3965517241379,534.290909090909,744.3965517241379,526.1454545454545,757.9310344827586,526.1454545454545C771.4655172413793,526.1454545454545,771.4655172413793,540.9090909090909,785,540.9090909090909L785,549.0545454545454C771.4655172413793,549.0545454545454,771.4655172413793,539.8909090909091,757.9310344827586,539.8909090909091C744.3965517241379,539.8909090909091,744.3965517241379,543.709090909091,730.8620689655172,543.709090909091C717.3275862068965,543.709090909091,717.3275862068965,544.7272727272727,703.7931034482759,544.7272727272727C690.2586206896551,544.7272727272727,690.2586206896551,547.5272727272727,676.7241379310344,547.5272727272727C663.1896551724137,547.5272727272727,663.1896551724137,549.0545454545454,649.6551724137931,549.0545454545454C636.1206896551724,549.0545454545454,636.1206896551724,556.9454545454545,622.5862068965517,556.9454545454545C609.051724137931,556.9454545454545,609.051724137931,557.4545454545455,595.5172413793103,557.4545454545455C581.9827586206897,557.4545454545455,581.9827586206897,550.3272727272727,568.448275862069,550.3272727272727C554.9137931034484,550.3272727272727,554.9137931034484,560,541.3793103448277,560C527.844827586207,560,527.844827586207,558.4727272727273,514.3103448275862,558.4727272727273C500.77586206896547,558.4727272727273,500.77586206896547,557.7090909090908,487.2413793103448,557.7090909090908C473.7068965517241,557.7090909090908,473.7068965517241,559.2363636363636,460.17241379310343,559.2363636363636C446.63793103448273,559.2363636363636,446.63793103448273,558.9818181818182,433.10344827586204,558.9818181818182C419.5689655172414,558.9818181818182,419.5689655172414,560,406.0344827586207,560C392.5,560,392.5,556.6909090909091,378.9655172413793,556.6909090909091C365.4310344827586,556.6909090909091,365.4310344827586,559.4909090909091,351.89655172413796,559.4909090909091C311.29310344827593,559.4909090909091,311.29310344827593,560,270.68965517241384,560C257.15517241379314,560,257.15517241379314,559.2363636363636,243.6206896551724,559.2363636363636C230.08620689655172,559.2363636363636,230.08620689655172,557.4545454545455,216.55172413793102,557.4545454545455C203.01724137931035,557.4545454545455,203.01724137931035,559.7454545454545,189.48275862068965,559.7454545454545C175.94827586206895,559.7454545454545,175.94827586206895,553.1272727272727,162.41379310344828,553.1272727272727C135.3448275862069,553.1272727272727,135.3448275862069,560,108.27586206896551,560C94.74137931034483,560,94.74137931034483,560,81.20689655172414,560C67.67241379310344,560,67.67241379310344,560,54.137931034482754,560C40.603448275862064,560,40.603448275862064,560,27.068965517241377,560C13.534482758620689,560,13.534482758620689,560,0,560Z"><title>Sub-Saharan Africa</title></path><path fill="rgb(225, 82, 74)" d="M0,560C13.534482758620689,560,13.534482758620689,560,27.068965517241377,560C40.603448275862064,560,40.603448275862064,560,54.137931034482754,560C67.67241379310344,560,67.67241379310344,560,81.20689655172414,560C94.74137931034483,560,94.74137931034483,560,108.27586206896551,560C135.3448275862069,560,135.3448275862069,559.2363636363636,162.41379310344828,559.2363636363636C175.94827586206895,559.2363636363636,175.94827586206895,559.7454545454545,189.48275862068965,559.7454545454545C203.01724137931035,559.7454545454545,203.01724137931035,553.8909090909091,216.55172413793102,553.8909090909091C230.08620689655172,553.8909090909091,230.08620689655172,543.709090909091,243.6206896551724,543.709090909091C257.15517241379314,543.709090909091,257.15517241379314,547.0181818181818,270.68965517241384,547.0181818181818C311.29310344827593,547.0181818181818,311.29310344827593,559.4909090909091,351.89655172413796,559.4909090909091C365.4310344827586,559.4909090909091,365.4310344827586,549.5636363636363,378.9655172413793,549.5636363636363C392.5,549.5636363636363,392.5,542.6909090909091,406.0344827586207,542.6909090909091C419.5689655172414,542.6909090909091,419.5689655172414,533.5272727272727,433.10344827586204,533.5272727272727C446.63793103448273,533.5272727272727,446.63793103448273,480.8363636363636,460.17241379310343,480.8363636363636C473.7068965517241,480.8363636363636,473.7068965517241,477.0181818181818,487.2413793103448,477.0181818181818C500.77586206896547,477.0181818181818,500.77586206896547,482.10909090909087,514.3103448275862,482.10909090909087C527.844827586207,482.10909090909087,527.844827586207,503.23636363636365,541.3793103448277,503.23636363636365C554.9137931034484,503.23636363636365,554.9137931034484,557.4545454545455,568.448275862069,557.4545454545455C581.9827586206897,557.4545454545455,581.9827586206897,412.8727272727273,595.5172413793103,412.8727272727273C609.051724137931,412.8727272727273,609.051724137931,432.7272727272727,622.5862068965517,432.7272727272727C636.1206896551724,432.7272727272727,636.1206896551724,369.59999999999997,649.6551724137931,369.59999999999997C663.1896551724137,369.59999999999997,663.1896551724137,314.1090909090909,676.7241379310344,314.1090909090909C690.2586206896551,314.1090909090909,690.2586206896551,292.9818181818182,703.7931034482759,292.9818181818182C717.3275862068965,292.9818181818182,717.3275862068965,296.8,730.8620689655172,296.8C744.3965517241379,296.8,744.3965517241379,129.05454545454546,757.9310344827586,129.05454545454546C771.4655172413793,129.05454545454546,771.4655172413793,143.05454545454546,785,143.05454545454546L785,216.61818181818182C771.4655172413793,216.61818181818182,771.4655172413793,212.2909090909091,757.9310344827586,212.2909090909091C744.3965517241379,212.2909090909091,744.3965517241379,362.2181818181818,730.8620689655172,362.2181818181818C717.3275862068965,362.2181818181818,717.3275862068965,344.90909090909093,703.7931034482759,344.90909090909093C690.2586206896551,344.90909090909093,690.2586206896551,371.8909090909091,676.7241379310344,371.8909090909091C663.1896551724137,371.8909090909091,663.1896551724137,423.30909090909086,649.6551724137931,423.30909090909086C636.1206896551724,423.30909090909086,636.1206896551724,471.16363636363633,622.5862068965517,471.16363636363633C609.051724137931,471.16363636363633,609.051724137931,455.6363636363636,595.5172413793103,455.6363636363636C581.9827586206897,455.6363636363636,581.9827586206897,559.7454545454545,568.448275862069,559.7454545454545C554.9137931034484,559.7454545454545,554.9137931034484,518.7636363636364,541.3793103448277,518.7636363636364C527.844827586207,518.7636363636364,527.844827586207,500.6909090909091,514.3103448275862,500.6909090909091C500.77586206896547,500.6909090909091,500.77586206896547,495.8545454545455,487.2413793103448,495.8545454545455C473.7068965517241,495.8545454545455,473.7068965517241,497.8909090909091,460.17241379310343,497.8909090909091C446.63793103448273,497.8909090909091,446.63793103448273,541.1636363636363,433.10344827586204,541.1636363636363C419.5689655172414,541.1636363636363,419.5689655172414,549.309090909091,406.0344827586207,549.309090909091C392.5,549.309090909091,392.5,553.1272727272727,378.9655172413793,553.1272727272727C365.4310344827586,553.1272727272727,365.4310344827586,560,351.89655172413796,560C311.29310344827593,560,311.29310344827593,552.3636363636364,270.68965517241384,552.3636363636364C257.15517241379314,552.3636363636364,257.15517241379314,551.6,243.6206896551724,551.6C230.08620689655172,551.6,230.08620689655172,555.9272727272727,216.55172413793102,555.9272727272727C203.01724137931035,555.9272727272727,203.01724137931035,560,189.48275862068965,560C175.94827586206895,560,175.94827586206895,560,162.41379310344828,560C135.3448275862069,560,135.3448275862069,560,108.27586206896551,560C94.74137931034483,560,94.74137931034483,560,81.20689655172414,560C67.67241379310344,560,67.67241379310344,560,54.137931034482754,560C40.603448275862064,560,40.603448275862064,560,27.068965517241377,560C13.534482758620689,560,13.534482758620689,560,0,560Z"><title>East Asia</title></path><path fill="rgb(114, 195, 167)" d="M0,521.5636363636364C13.534482758620689,521.5636363636364,13.534482758620689,556.1818181818181,27.068965517241377,556.1818181818181C40.603448275862064,556.1818181818181,40.603448275862064,559.4909090909091,54.137931034482754,559.4909090909091C67.67241379310344,559.4909090909091,67.67241379310344,556.9454545454545,81.20689655172414,556.9454545454545C94.74137931034483,556.9454545454545,94.74137931034483,549.8181818181819,108.27586206896551,549.8181818181819C135.3448275862069,549.8181818181819,135.3448275862069,519.0181818181818,162.41379310344828,519.0181818181818C175.94827586206895,519.0181818181818,175.94827586206895,531.7454545454545,189.48275862068965,531.7454545454545C203.01724137931035,531.7454545454545,203.01724137931035,500.43636363636364,216.55172413793102,500.43636363636364C230.08620689655172,500.43636363636364,230.08620689655172,509.8545454545454,243.6206896551724,509.8545454545454C257.15517241379314,509.8545454545454,257.15517241379314,503.23636363636365,270.68965517241384,503.23636363636365C311.29310344827593,503.23636363636365,311.29310344827593,490,351.89655172413796,490C365.4310344827586,490,365.4310344827586,509.6,378.9655172413793,509.6C392.5,509.6,392.5,490.25454545454545,406.0344827586207,490.25454545454545C419.5689655172414,490.25454545454545,419.5689655172414,467.0909090909091,433.10344827586204,467.0909090909091C446.63793103448273,467.0909090909091,446.63793103448273,497.8909090909091,460.17241379310343,497.8909090909091C473.7068965517241,497.8909090909091,473.7068965517241,495.8545454545455,487.2413793103448,495.8545454545455C500.77586206896547,495.8545454545455,500.77586206896547,518.2545454545455,514.3103448275862,518.2545454545455C527.844827586207,518.2545454545455,527.844827586207,518.7636363636364,541.3793103448277,518.7636363636364C554.9137931034484,518.7636363636364,554.9137931034484,480.3272727272727,568.448275862069,480.3272727272727C581.9827586206897,480.3272727272727,581.9827586206897,368.5818181818182,595.5172413793103,368.5818181818182C609.051724137931,368.5818181818182,609.051724137931,497.3818181818182,622.5862068965517,497.3818181818182C636.1206896551724,497.3818181818182,636.1206896551724,461.4909090909091,649.6551724137931,461.4909090909091C663.1896551724137,461.4909090909091,663.1896551724137,371.8909090909091,676.7241379310344,371.8909090909091C690.2586206896551,371.8909090909091,690.2586206896551,490,703.7931034482759,490C717.3275862068965,490,717.3275862068965,362.2181818181818,730.8620689655172,362.2181818181818C744.3965517241379,362.2181818181818,744.3965517241379,488.72727272727275,757.9310344827586,488.72727272727275C771.4655172413793,488.72727272727275,771.4655172413793,344.90909090909093,785,344.90909090909093L785,397.8545454545455C771.4655172413793,397.8545454545455,771.4655172413793,526.1454545454545,757.9310344827586,526.1454545454545C744.3965517241379,526.1454545454545,744.3965517241379,413.6363636363636,730.8620689655172,413.6363636363636C717.3275862068965,413.6363636363636,717.3275862068965,532.7636363636364,703.7931034482759,532.7636363636364C690.2586206896551,532.7636363636364,690.2586206896551,424.3272727272727,676.7241379310344,424.3272727272727C663.1896551724137,424.3272727272727,663.1896551724137,495.8545454545455,649.6551724137931,495.8545454545455C636.1206896551724,495.8545454545455,636.1206896551724,522.5818181818182,622.5862068965517,522.5818181818182C609.051724137931,522.5818181818182,609.051724137931,412.8727272727273,595.5172413793103,412.8727272727273C581.9827586206897,412.8727272727273,581.9827586206897,511.6363636363636,568.448275862069,511.6363636363636C554.9137931034484,511.6363636363636,554.9137931034484,533.5272727272727,541.3793103448277,533.5272727272727C527.844827586207,533.5272727272727,527.844827586207,529.9636363636364,514.3103448275862,529.9636363636364C500.77586206896547,529.9636363636364,500.77586206896547,511.6363636363636,487.2413793103448,511.6363636363636C473.7068965517241,511.6363636363636,473.7068965517241,514.4363636363637,460.17241379310343,514.4363636363637C446.63793103448273,514.4363636363637,446.63793103448273,498.6545454545455,433.10344827586204,498.6545454545455C419.5689655172414,498.6545454545455,419.5689655172414,508.07272727272726,406.0344827586207,508.07272727272726C392.5,508.07272727272726,392.5,529.9636363636364,378.9655172413793,529.9636363636364C365.4310344827586,529.9636363636364,365.4310344827586,512.1454545454545,351.89655172413796,512.1454545454545C311.29310344827593,512.1454545454545,311.29310344827593,522.3272727272728,270.68965517241384,522.3272727272728C257.15517241379314,522.3272727272728,257.15517241379314,529.709090909091,243.6206896551724,529.709090909091C230.08620689655172,529.709090909091,230.08620689655172,522.0727272727272,216.55172413793102,522.0727272727272C203.01724137931035,522.0727272727272,203.01724137931035,546,189.48275862068965,546C175.94827586206895,546,175.94827586206895,547.7818181818182,162.41379310344828,547.7818181818182C135.3448275862069,547.7818181818182,135.3448275862069,555.6727272727273,108.27586206896551,555.6727272727273C94.74137931034483,555.6727272727273,94.74137931034483,559.4909090909091,81.20689655172414,559.4909090909091C67.67241379310344,559.4909090909091,67.67241379310344,560,54.137931034482754,560C40.603448275862064,560,40.603448275862064,557.7090909090908,27.068965517241377,557.7090909090908C13.534482758620689,557.7090909090908,13.534482758620689,534.8,0,534.8Z"><title>Southern Europe</title></path><path fill="rgb(251, 248, 176)" d="M0,553.1272727272727C13.534482758620689,553.1272727272727,13.534482758620689,507.3090909090909,27.068965517241377,507.3090909090909C40.603448275862064,507.3090909090909,40.603448275862064,558.9818181818182,54.137931034482754,558.9818181818182C67.67241379310344,558.9818181818182,67.67241379310344,355.3454545454545,81.20689655172414,355.3454545454545C94.74137931034483,355.3454545454545,94.74137931034483,334.7272727272727,108.27586206896551,334.7272727272727C135.3448275862069,334.7272727272727,135.3448275862069,229.60000000000002,162.41379310344828,229.60000000000002C175.94827586206895,229.60000000000002,175.94827586206895,399.8909090909091,189.48275862068965,399.8909090909091C203.01724137931035,399.8909090909091,203.01724137931035,432.9818181818182,216.55172413793102,432.9818181818182C230.08620689655172,432.9818181818182,230.08620689655172,459.20000000000005,243.6206896551724,459.20000000000005C257.15517241379314,459.20000000000005,257.15517241379314,438.83636363636367,270.68965517241384,438.83636363636367C311.29310344827593,438.83636363636367,311.29310344827593,352.8,351.89655172413796,352.8C365.4310344827586,352.8,365.4310344827586,397.8545454545455,378.9655172413793,397.8545454545455C392.5,397.8545454545455,392.5,459.45454545454544,406.0344827586207,459.45454545454544C419.5689655172414,459.45454545454544,419.5689655172414,498.6545454545455,433.10344827586204,498.6545454545455C446.63793103448273,498.6545454545455,446.63793103448273,514.4363636363637,460.17241379310343,514.4363636363637C473.7068965517241,514.4363636363637,473.7068965517241,525.8909090909091,487.2413793103448,525.8909090909091C500.77586206896547,525.8909090909091,500.77586206896547,500.6909090909091,514.3103448275862,500.6909090909091C527.844827586207,500.6909090909091,527.844827586207,487.4545454545455,541.3793103448277,487.4545454545455C554.9137931034484,487.4545454545455,554.9137931034484,511.6363636363636,568.448275862069,511.6363636363636C581.9827586206897,511.6363636363636,581.9827586206897,455.6363636363636,595.5172413793103,455.6363636363636C609.051724137931,455.6363636363636,609.051724137931,471.16363636363633,622.5862068965517,471.16363636363633C636.1206896551724,471.16363636363633,636.1206896551724,423.30909090909086,649.6551724137931,423.30909090909086C663.1896551724137,423.30909090909086,663.1896551724137,502.9818181818182,676.7241379310344,502.9818181818182C690.2586206896551,502.9818181818182,690.2586206896551,442.6545454545455,703.7931034482759,442.6545454545455C717.3275862068965,442.6545454545455,717.3275862068965,504.5090909090909,730.8620689655172,504.5090909090909C744.3965517241379,504.5090909090909,744.3965517241379,448.76363636363635,757.9310344827586,448.76363636363635C771.4655172413793,448.76363636363635,771.4655172413793,397.8545454545455,785,397.8545454545455L785,449.5272727272727C771.4655172413793,449.5272727272727,771.4655172413793,488.72727272727275,757.9310344827586,488.72727272727275C744.3965517241379,488.72727272727275,744.3965517241379,534.290909090909,730.8620689655172,534.290909090909C717.3275862068965,534.290909090909,717.3275862068965,490,703.7931034482759,490C690.2586206896551,490,690.2586206896551,535.309090909091,676.7241379310344,535.309090909091C663.1896551724137,535.309090909091,663.1896551724137,461.4909090909091,649.6551724137931,461.4909090909091C636.1206896551724,461.4909090909091,636.1206896551724,497.3818181818182,622.5862068965517,497.3818181818182C609.051724137931,497.3818181818182,609.051724137931,490.50909090909096,595.5172413793103,490.50909090909096C581.9827586206897,490.50909090909096,581.9827586206897,532.7636363636364,568.448275862069,532.7636363636364C554.9137931034484,532.7636363636364,554.9137931034484,503.23636363636365,541.3793103448277,503.23636363636365C527.844827586207,503.23636363636365,527.844827586207,518.2545454545455,514.3103448275862,518.2545454545455C500.77586206896547,518.2545454545455,500.77586206896547,539.3818181818182,487.2413793103448,539.3818181818182C473.7068965517241,539.3818181818182,473.7068965517241,529.9636363636364,460.17241379310343,529.9636363636364C446.63793103448273,529.9636363636364,446.63793103448273,515.4545454545454,433.10344827586204,515.4545454545454C419.5689655172414,515.4545454545454,419.5689655172414,490.25454545454545,406.0344827586207,490.25454545454545C392.5,490.25454545454545,392.5,439.6,378.9655172413793,439.6C365.4310344827586,439.6,365.4310344827586,410.07272727272726,351.89655172413796,410.07272727272726C311.29310344827593,410.07272727272726,311.29310344827593,474.2181818181818,270.68965517241384,474.2181818181818C257.15517241379314,474.2181818181818,257.15517241379314,486.1818181818182,243.6206896551724,486.1818181818182C230.08620689655172,486.1818181818182,230.08620689655172,470.6545454545454,216.55172413793102,470.6545454545454C203.01724137931035,470.6545454545454,203.01724137931035,461.4909090909091,189.48275862068965,461.4909090909091C175.94827586206895,461.4909090909091,175.94827586206895,362.2181818181818,162.41379310344828,362.2181818181818C135.3448275862069,362.2181818181818,135.3448275862069,477.2727272727273,108.27586206896551,477.2727272727273C94.74137931034483,477.2727272727273,94.74137931034483,491.0181818181818,81.20689655172414,491.0181818181818C67.67241379310344,491.0181818181818,67.67241379310344,559.4909090909091,54.137931034482754,559.4909090909091C40.603448275862064,559.4909090909091,40.603448275862064,531.2363636363636,27.068965517241377,531.2363636363636C13.534482758620689,531.2363636363636,13.534482758620689,556.4363636363637,0,556.4363636363637Z"><title>Northern Europe</title></path><path fill="rgb(160, 217, 163)" d="M0,560C13.534482758620689,560,13.534482758620689,560,27.068965517241377,560C40.603448275862064,560,40.603448275862064,560,54.137931034482754,560C67.67241379310344,560,67.67241379310344,560,81.20689655172414,560C94.74137931034483,560,94.74137931034483,560,108.27586206896551,560C135.3448275862069,560,135.3448275862069,560,162.41379310344828,560C175.94827586206895,560,175.94827586206895,560,189.48275862068965,560C203.01724137931035,560,203.01724137931035,559.7454545454545,216.55172413793102,559.7454545454545C230.08620689655172,559.7454545454545,230.08620689655172,559.2363636363636,243.6206896551724,559.2363636363636C257.15517241379314,559.2363636363636,257.15517241379314,559.4909090909091,270.68965517241384,559.4909090909091C311.29310344827593,559.4909090909091,311.29310344827593,560,351.89655172413796,560C365.4310344827586,560,365.4310344827586,560,378.9655172413793,560C392.5,560,392.5,560,406.0344827586207,560C419.5689655172414,560,419.5689655172414,559.7454545454545,433.10344827586204,559.7454545454545C446.63793103448273,559.7454545454545,446.63793103448273,559.7454545454545,460.17241379310343,559.7454545454545C473.7068965517241,559.7454545454545,473.7068965517241,560,487.2413793103448,560C500.77586206896547,560,500.77586206896547,560,514.3103448275862,560C527.844827586207,560,527.844827586207,559.7454545454545,541.3793103448277,559.7454545454545C554.9137931034484,559.7454545454545,554.9137931034484,560,568.448275862069,560C581.9827586206897,560,581.9827586206897,559.7454545454545,595.5172413793103,559.7454545454545C609.051724137931,559.7454545454545,609.051724137931,556.9454545454545,622.5862068965517,556.9454545454545C636.1206896551724,556.9454545454545,636.1206896551724,556.1818181818181,649.6551724137931,556.1818181818181C663.1896551724137,556.1818181818181,663.1896551724137,554.909090909091,676.7241379310344,554.909090909091C690.2586206896551,554.909090909091,690.2586206896551,553.8909090909091,703.7931034482759,553.8909090909091C717.3275862068965,553.8909090909091,717.3275862068965,554.4,730.8620689655172,554.4C744.3965517241379,554.4,744.3965517241379,553.3818181818182,757.9310344827586,553.3818181818182C771.4655172413793,553.3818181818182,771.4655172413793,552.6181818181818,785,552.6181818181818L785,555.9272727272727C771.4655172413793,555.9272727272727,771.4655172413793,557.4545454545455,757.9310344827586,557.4545454545455C744.3965517241379,557.4545454545455,744.3965517241379,557.7090909090908,730.8620689655172,557.7090909090908C717.3275862068965,557.7090909090908,717.3275862068965,556.9454545454545,703.7931034482759,556.9454545454545C690.2586206896551,556.9454545454545,690.2586206896551,557.9636363636364,676.7241379310344,557.9636363636364C663.1896551724137,557.9636363636364,663.1896551724137,558.7272727272727,649.6551724137931,558.7272727272727C636.1206896551724,558.7272727272727,636.1206896551724,558.2181818181818,622.5862068965517,558.2181818181818C609.051724137931,558.2181818181818,609.051724137931,560,595.5172413793103,560C581.9827586206897,560,581.9827586206897,560,568.448275862069,560C554.9137931034484,560,554.9137931034484,560,541.3793103448277,560C527.844827586207,560,527.844827586207,560,514.3103448275862,560C500.77586206896547,560,500.77586206896547,560,487.2413793103448,560C473.7068965517241,560,473.7068965517241,560,460.17241379310343,560C446.63793103448273,560,446.63793103448273,560,433.10344827586204,560C419.5689655172414,560,419.5689655172414,560,406.0344827586207,560C392.5,560,392.5,560,378.9655172413793,560C365.4310344827586,560,365.4310344827586,560,351.89655172413796,560C311.29310344827593,560,311.29310344827593,559.7454545454545,270.68965517241384,559.7454545454545C257.15517241379314,559.7454545454545,257.15517241379314,560,243.6206896551724,560C230.08620689655172,560,230.08620689655172,560,216.55172413793102,560C203.01724137931035,560,203.01724137931035,560,189.48275862068965,560C175.94827586206895,560,175.94827586206895,560,162.41379310344828,560C135.3448275862069,560,135.3448275862069,560,108.27586206896551,560C94.74137931034483,560,94.74137931034483,560,81.20689655172414,560C67.67241379310344,560,67.67241379310344,560,54.137931034482754,560C40.603448275862064,560,40.603448275862064,560,27.068965517241377,560C13.534482758620689,560,13.534482758620689,560,0,560Z"><title>Southeast Asia</title></path><path fill="rgb(196, 44, 74)" d="M0,560C13.534482758620689,560,13.534482758620689,560,27.068965517241377,560C40.603448275862064,560,40.603448275862064,560,54.137931034482754,560C67.67241379310344,560,67.67241379310344,560,81.20689655172414,560C94.74137931034483,560,94.74137931034483,560,108.27586206896551,560C135.3448275862069,560,135.3448275862069,560,162.41379310344828,560C175.94827586206895,560,175.94827586206895,560,189.48275862068965,560C203.01724137931035,560,203.01724137931035,560,216.55172413793102,560C230.08620689655172,560,230.08620689655172,560,243.6206896551724,560C257.15517241379314,560,257.15517241379314,560,270.68965517241384,560C311.29310344827593,560,311.29310344827593,560,351.89655172413796,560C365.4310344827586,560,365.4310344827586,560,378.9655172413793,560C392.5,560,392.5,560,406.0344827586207,560C419.5689655172414,560,419.5689655172414,560,433.10344827586204,560C446.63793103448273,560,446.63793103448273,560,460.17241379310343,560C473.7068965517241,560,473.7068965517241,560,487.2413793103448,560C500.77586206896547,560,500.77586206896547,560,514.3103448275862,560C527.844827586207,560,527.844827586207,560,541.3793103448277,560C554.9137931034484,560,554.9137931034484,560,568.448275862069,560C581.9827586206897,560,581.9827586206897,560,595.5172413793103,560C609.051724137931,560,609.051724137931,560,622.5862068965517,560C636.1206896551724,560,636.1206896551724,560,649.6551724137931,560C663.1896551724137,560,663.1896551724137,551.6,676.7241379310344,551.6C690.2586206896551,551.6,690.2586206896551,550.8363636363637,703.7931034482759,550.8363636363637C717.3275862068965,550.8363636363637,717.3275862068965,551.0909090909091,730.8620689655172,551.0909090909091C744.3965517241379,551.0909090909091,744.3965517241379,547.5272727272727,757.9310344827586,547.5272727272727C771.4655172413793,547.5272727272727,771.4655172413793,549.0545454545454,785,549.0545454545454L785,552.6181818181818C771.4655172413793,552.6181818181818,771.4655172413793,553.3818181818182,757.9310344827586,553.3818181818182C744.3965517241379,553.3818181818182,744.3965517241379,554.4,730.8620689655172,554.4C717.3275862068965,554.4,717.3275862068965,553.8909090909091,703.7931034482759,553.8909090909091C690.2586206896551,553.8909090909091,690.2586206896551,554.909090909091,676.7241379310344,554.909090909091C663.1896551724137,554.909090909091,663.1896551724137,560,649.6551724137931,560C636.1206896551724,560,636.1206896551724,560,622.5862068965517,560C609.051724137931,560,609.051724137931,560,595.5172413793103,560C581.9827586206897,560,581.9827586206897,560,568.448275862069,560C554.9137931034484,560,554.9137931034484,560,541.3793103448277,560C527.844827586207,560,527.844827586207,560,514.3103448275862,560C500.77586206896547,560,500.77586206896547,560,487.2413793103448,560C473.7068965517241,560,473.7068965517241,560,460.17241379310343,560C446.63793103448273,560,446.63793103448273,560,433.10344827586204,560C419.5689655172414,560,419.5689655172414,560,406.0344827586207,560C392.5,560,392.5,560,378.9655172413793,560C365.4310344827586,560,365.4310344827586,560,351.89655172413796,560C311.29310344827593,560,311.29310344827593,560,270.68965517241384,560C257.15517241379314,560,257.15517241379314,560,243.6206896551724,560C230.08620689655172,560,230.08620689655172,560,216.55172413793102,560C203.01724137931035,560,203.01724137931035,560,189.48275862068965,560C175.94827586206895,560,175.94827586206895,560,162.41379310344828,560C135.3448275862069,560,135.3448275862069,560,108.27586206896551,560C94.74137931034483,560,94.74137931034483,560,81.20689655172414,560C67.67241379310344,560,67.67241379310344,560,54.137931034482754,560C40.603448275862064,560,40.603448275862064,560,27.068965517241377,560C13.534482758620689,560,13.534482758620689,560,0,560Z"><title>Central Asia</title></path><path fill="rgb(235, 247, 166)" d="M0,560C13.534482758620689,560,13.534482758620689,560,27.068965517241377,560C40.603448275862064,560,40.603448275862064,560,54.137931034482754,560C67.67241379310344,560,67.67241379310344,560,81.20689655172414,560C94.74137931034483,560,94.74137931034483,560,108.27586206896551,560C135.3448275862069,560,135.3448275862069,560,162.41379310344828,560C175.94827586206895,560,175.94827586206895,560,189.48275862068965,560C203.01724137931035,560,203.01724137931035,560,216.55172413793102,560C230.08620689655172,560,230.08620689655172,560,243.6206896551724,560C257.15517241379314,560,257.15517241379314,560,270.68965517241384,560C311.29310344827593,560,311.29310344827593,560,351.89655172413796,560C365.4310344827586,560,365.4310344827586,560,378.9655172413793,560C392.5,560,392.5,560,406.0344827586207,560C419.5689655172414,560,419.5689655172414,560,433.10344827586204,560C446.63793103448273,560,446.63793103448273,560,460.17241379310343,560C473.7068965517241,560,473.7068965517241,560,487.2413793103448,560C500.77586206896547,560,500.77586206896547,560,514.3103448275862,560C527.844827586207,560,527.844827586207,560,541.3793103448277,560C554.9137931034484,560,554.9137931034484,560,568.448275862069,560C581.9827586206897,560,581.9827586206897,560,595.5172413793103,560C609.051724137931,560,609.051724137931,560,622.5862068965517,560C636.1206896551724,560,636.1206896551724,560,649.6551724137931,560C663.1896551724137,560,663.1896551724137,559.4909090909091,676.7241379310344,559.4909090909091C690.2586206896551,559.4909090909091,690.2586206896551,560,703.7931034482759,560C717.3275862068965,560,717.3275862068965,560,730.8620689655172,560C744.3965517241379,560,744.3965517241379,560,757.9310344827586,560C771.4655172413793,560,771.4655172413793,560,785,560L785,560C771.4655172413793,560,771.4655172413793,560,757.9310344827586,560C744.3965517241379,560,744.3965517241379,560,730.8620689655172,560C717.3275862068965,560,717.3275862068965,560,703.7931034482759,560C690.2586206896551,560,690.2586206896551,559.7454545454545,676.7241379310344,559.7454545454545C663.1896551724137,559.7454545454545,663.1896551724137,560,649.6551724137931,560C636.1206896551724,560,636.1206896551724,560,622.5862068965517,560C609.051724137931,560,609.051724137931,560,595.5172413793103,560C581.9827586206897,560,581.9827586206897,560,568.448275862069,560C554.9137931034484,560,554.9137931034484,560,541.3793103448277,560C527.844827586207,560,527.844827586207,560,514.3103448275862,560C500.77586206896547,560,500.77586206896547,560,487.2413793103448,560C473.7068965517241,560,473.7068965517241,560,460.17241379310343,560C446.63793103448273,560,446.63793103448273,560,433.10344827586204,560C419.5689655172414,560,419.5689655172414,560,406.0344827586207,560C392.5,560,392.5,560,378.9655172413793,560C365.4310344827586,560,365.4310344827586,560,351.89655172413796,560C311.29310344827593,560,311.29310344827593,560,270.68965517241384,560C257.15517241379314,560,257.15517241379314,560,243.6206896551724,560C230.08620689655172,560,230.08620689655172,560,216.55172413793102,560C203.01724137931035,560,203.01724137931035,560,189.48275862068965,560C175.94827586206895,560,175.94827586206895,560,162.41379310344828,560C135.3448275862069,560,135.3448275862069,560,108.27586206896551,560C94.74137931034483,560,94.74137931034483,560,81.20689655172414,560C67.67241379310344,560,67.67241379310344,560,54.137931034482754,560C40.603448275862064,560,40.603448275862064,560,27.068965517241377,560C13.534482758620689,560,13.534482758620689,560,0,560Z"><title>Polynesia</title></path></g><g id="xAxis" transform="translate(0,560)" fill="none" font-size="10" font-family="sans-serif" text-anchor="middle"><path class="domain" stroke="currentColor" d="M0,0H785"/><g class="tick" opacity="1" transform="translate(27.068965517241377,0)"><line stroke="currentColor" y2="6"/><text fill="currentColor" y="9" dy="0.71em">1,900</text></g><g class="tick" opacity="1" transform="translate(94.74137931034483,0)"><line stroke="currentColor" y2="6"/><text fill="currentColor" y="9" dy="0.71em">1,910</text></g><g class="tick" opacity="1" transform="translate(162.41379310344828,0)"><line stroke="currentColor" y2="6"/><text fill="currentColor" y="9" dy="0.71em">1,920</text></g><g class="tick" opacity="1" transform="translate(230.08620689655172,0)"><line stroke="currentColor" y2="6"/><text fill="currentColor" y="9" dy="0.71em">1,930</text></g><g class="tick" opacity="1" transform="translate(297.7586206896552,0)"><line stroke="currentColor" y2="6"/><text fill="currentColor" y="9" dy="0.71em">1,940</text></g><g class="tick" opacity="1" transform="translate(365.4310344827586,0)"><line stroke="currentColor" y2="6"/><text fill="currentColor" y="9" dy="0.71em">1,950</text></g><g class="tick" opacity="1" transform="translate(433.10344827586204,0)"><line stroke="currentColor" y2="6"/><text fill="currentColor" y="9" dy="0.71em">1,960</text></g><g class="tick" opacity="1" transform="translate(500.7758620689656,0)"><line stroke="currentColor" y2="6"/><text fill="currentColor" y="9" dy="0.71em">1,970</text></g><g class="tick" opacity="1" transform="translate(568.448275862069,0)"><line stroke="currentColor" y2="6"/><text fill="currentColor" y="9" dy="0.71em">1,980</text></g><g class="tick" opacity="1" transform="translate(636.1206896551723,0)"><line stroke="currentColor" y2="6"/><text fill="currentColor" y="9" dy="0.71em">1,990</text></g><g class="tick" opacity="1" transform="translate(703.7931034482759,0)"><line stroke="currentColor" y2="6"/><text fill="currentColor" y="9" dy="0.71em">2,000</text></g><g class="tick" opacity="1" transform="translate(771.4655172413793,0)"><line stroke="currentColor" y2="6"/><text fill="currentColor" y="9" dy="0.71em">2,010</text></g></g><text y="556" x="785" text-anchor="end" style="font-family: Arial, sans-serif; font-size: 12px; fill: rgb(123, 123, 123); font-weight: bold;">Year</text><text x="4" text-anchor="start" dominant-baseline="hanging" style="font-family: Arial, sans-serif; font-size: 12px; fill: rgb(123, 123, 123); font-weight: bold;">Medals</text><g id="labels"><text x="406.0344827586207" y="538.7454545454545" text-anchor="middle" alignment-baseline="middle" style="font-family: Arial, sans-serif; font-size: 10px; fill: black; font-weight: bold;">South Asia</text><text x="703.7931034482759" y="558.2181818181818" text-anchor="middle" alignment-baseline="middle" style="font-family: Arial, sans-serif; font-size: 10px; fill: black; font-weight: bold;">North Africa</text><text x="757.9310344827586" y="380.2909090909091" text-anchor="middle" alignment-baseline="middle" style="font-family: Arial, sans-serif; font-size: 10px; fill: black; font-weight: bold;">Latin America and the Caribbean</text><text x="785" y="535.1818181818181" text-anchor="end" alignment-baseline="middle" style="font-family: Arial, sans-serif; font-size: 10px; fill: black; font-weight: bold;">Western Asia</text><text x="703.7931034482759" y="418.8545454545454" text-anchor="middle" alignment-baseline="middle" style="font-family: Arial, sans-serif; font-size: 10px; fill: black; font-weight: bold;">Australasia</text><text x="162.41379310344828" y="414.0181818181818" text-anchor="middle" alignment-baseline="middle" style="font-family: Arial, sans-serif; font-size: 10px; fill: black; font-weight: bold;">Western Europe</text><text x="568.448275862069" y="305.07272727272726" text-anchor="middle" alignment-baseline="middle" style="font-family: Arial, sans-serif; font-size: 10px; fill: black; font-weight: bold;">Eastern Europe</text><text x="54.137931034482754" y="494.9636363636364" text-anchor="middle" alignment-baseline="middle" style="font-family: Arial, sans-serif; font-size: 10px; fill: black; font-weight: bold;">Northern America</text><text x="757.9310344827586" y="533.0181818181818" text-anchor="middle" alignment-baseline="middle" style="font-family: Arial, sans-serif; font-size: 10px; fill: black; font-weight: bold;">Sub-Saharan Africa</text><text x="757.9310344827586" y="170.6727272727273" text-anchor="middle" alignment-baseline="middle" style="font-family: Arial, sans-serif; font-size: 10px; fill: black; font-weight: bold;">East Asia</text><text x="785" y="371.3818181818182" text-anchor="end" alignment-baseline="middle" style="font-family: Arial, sans-serif; font-size: 10px; fill: black; font-weight: bold;">Southern Europe</text><text x="108.27586206896551" y="406" text-anchor="middle" alignment-baseline="middle" style="font-family: Arial, sans-serif; font-size: 10px; fill: black; font-weight: bold;">Northern Europe</text><text x="757.9310344827586" y="555.4181818181818" text-anchor="middle" alignment-baseline="middle" style="font-family: Arial, sans-serif; font-size: 10px; fill: black; font-weight: bold;">Southeast Asia</text><text x="757.9310344827586" y="550.4545454545454" text-anchor="middle" alignment-baseline="middle" style="font-family: Arial, sans-serif; font-size: 10px; fill: black; font-weight: bold;">Central Asia</text><text x="676.7241379310344" y="559.6181818181818" text-anchor="middle" alignment-baseline="middle" style="font-family: Arial, sans-serif; font-size: 10px; fill: black; font-weight: bold;">Polynesia</text></g></g><text x="4" y="4" style="font-family: Arial, sans-serif; font-size: 12px; fill: black; font-weight: bold; dominant-baseline: hanging;"/></g></g></svg>